<?xml version="1.0" encoding="utf-8"?>
<!-- Generator: Adobe Illustrator 24.1.1, SVG Export Plug-In . SVG Version: 6.00 Build 0)  -->
<svg version="1.1" id="Layer_1" xmlns="http://www.w3.org/2000/svg" xmlns:xlink="http://www.w3.org/1999/xlink" x="0px" y="0px"
	 viewBox="0 0 241 54.7" style="enable-background:new 0 0 241 54.7;" xml:space="preserve">
<style type="text/css">
	.st0{fill:none;stroke:#727272;stroke-width:3;stroke-miterlimit:10;}
	.st1{fill:#727272;}
	.st2{stroke:#000000;stroke-miterlimit:10;}
</style>
<g>
	<path d="M161.6,40.2h54.3c2,0,3.6-1.6,3.6-3.6V18.2c0-2-1.6-3.6-3.6-3.6h-54.3c-2,0-3.6,1.6-3.6,3.6v18.3
		C158,38.6,159.6,40.2,161.6,40.2z"/>
	<path class="st0" d="M216.4,43.8h-55.4c-3.7,0-6.7-3-6.7-6.7V17.5c0-3.7,3-6.7,6.7-6.7h55.4c3.7,0,6.7,3,6.7,6.7v19.6
		C223.1,40.8,220.1,43.8,216.4,43.8z"/>
	<path class="st1" d="M227.6,22.1c1.9,0,3.5,2.5,3.5,5.7s-1.6,5.7-3.5,5.7V22.1z"/>
</g>
<g>
	<path d="M16.6,45.2L16.6,45.2c-2.9,0-5.2-2.4-5.2-5.2v-3.6c0-2.9,2.4-5.2,5.2-5.2h0c2.9,0,5.2,2.4,5.2,5.2v3.6
		C21.8,42.8,19.5,45.2,16.6,45.2z"/>
	<path d="M32.6,45.2L32.6,45.2c-2.9,0-5.2-2.3-5.2-5.2v-10c0-2.9,2.3-5.2,5.2-5.2h0c2.9,0,5.2,2.3,5.2,5.2v10
		C37.8,42.8,35.4,45.2,32.6,45.2z"/>
	<path d="M48.8,45.2L48.8,45.2c-2.9,0-5.2-2.3-5.2-5.2V21.4c0-2.9,2.3-5.2,5.2-5.2h0c2.9,0,5.2,2.3,5.2,5.2v18.5
		C54,42.8,51.7,45.2,48.8,45.2z"/>
	<path d="M64.9,45.2L64.9,45.2c-2.9,0-5.2-2.3-5.2-5.2V12.7c0-2.9,2.3-5.2,5.2-5.2h0c2.9,0,5.2,2.3,5.2,5.2v27.3
		C70.1,42.8,67.8,45.2,64.9,45.2z"/>
</g>
<g>
	<path class="st2" d="M137.6,17.7c-14.4-13.1-36.5-13.1-51,0c-0.6,0.6-0.8,1.7-0.1,2.4l2.6,2.6c0.6,0.6,1.6,0.6,2.3,0.1
		c11.7-10.7,29.7-10.7,41.5,0c0.6,0.5,1.6,0.5,2.3-0.1l2.6-2.6C138.4,19.3,138.3,18.2,137.6,17.7z"/>
	<path class="st2" d="M127.8,27.4c-8.7-7.5-22.6-7.5-31.5,0c-0.8,0.6-0.8,1.7-0.1,2.4l2.6,2.6c0.5,0.5,1.5,0.6,2.2,0.1
		c6.2-5.2,15.9-5.2,22.1,0c0.6,0.5,1.6,0.4,2.2-0.1l2.6-2.6C128.6,29.1,128.6,27.9,127.8,27.4z"/>
	<path class="st2" d="M106.6,37.5c3.1-3.1,8.1-3.1,11.2,0l0,0c0.6,0.6,0.6,1.8,0,2.5l-4.3,4.3c-0.6,0.6-1.8,0.6-2.5,0l-4.3-4.3
		C105.9,39.2,105.9,38.2,106.6,37.5z"/>
</g>
</svg>
